# xmcd CD database file
#
# Track frame offsets:
#	150
#	11044
#	26832
#	38440
#	49654
#	61880
#	72115
#	87061
#	101319
#	115966
#	127860
#	137660
#	150934
#	160465
#	175323
#	189525
#	202145
#	213987
#	227458
#	241430
#
# Disc length: 3398 seconds
#
# Revision: 0
# Processed by: cddbd v1.5.1PL2 Copyright (c) Steve Scherf et al.
# Submitted via: CDex 1.51
#
DISCID=030d4414
DTITLE=The Kendalls - 20 Greatest Hit
DYEAR=2004
DGENRE=Country
TTITLE0=Heaven's Just A Sin Away
TTITLE1=When Can We Do This Again
TTITLE2=Sweet Desire
TTITLE3=It Don't Feel Like Sinin' To Me
TTITLE4=Pit It Off Until Tomorrow
TTITLE5=I Had A Lovely Time
TTITLE6=Just Like Real People
TTITLE7=Leavin' On A Jet Plane
TTITLE8=Makin' Believe
TTITLE9=I'm Already Blue
TTITLE10=You'd Make An Angel Wanna Cheat
TTITLE11=Pittsburgh Steelers
TTITLE12=I Don't Do Like That No More
TTITLE13=Never My Love
TTITLE14=You've Lost That Lovin' Feelin'
TTITLE15=Heart Of The Matter
TTITLE16=Don't Call Me Your Only Sunshine
TTITLE17=Old Fashioned Love
TTITLE18=Here Today And Gone Tomorrow
TTITLE19=Everlasting Love
EXTD=YEAR: 2004
EXTT0=
EXTT1=
EXTT2=
EXTT3=
EXTT4=
EXTT5=
EXTT6=
EXTT7=
EXTT8=
EXTT9=
EXTT10=
EXTT11=
EXTT12=
EXTT13=
EXTT14=
EXTT15=
EXTT16=
EXTT17=
EXTT18=
EXTT19=
PLAYORDER=
